<svg xmlns="http://www.w3.org/2000/svg" viewBox="0 0 512 512" width="100%" height="100%">
  <defs>
    <linearGradient id="ps-bg" x1="0%" y1="0%" x2="100%" y2="100%">
      <stop offset="0%" stop-color="#1A7A4A" />
      <stop offset="100%" stop-color="#0F2318" />
    </linearGradient>
    <linearGradient id="ball-grad" x1="0%" y1="0%" x2="100%" y2="100%">
      <stop offset="0%" stop-color="#FFFFFF" />
      <stop offset="100%" stop-color="#E8DCC8" />
    </linearGradient>
  </defs>
  <!-- Background Circle -->
  <circle cx="256" cy="256" r="256" fill="url(#ps-bg)" />
  <circle cx="256" cy="256" r="240" fill="none" stroke="#22C55E" stroke-width="8" opacity="0.3" />
  
  <!-- Football Icon -->
  <g transform="translate(106, 106) scale(12.5)">
    <!-- Outer Ball Stroke -->
    <path d="M12 2a10 10 0 1 0 10 10A10 10 0 0 0 12 2z" fill="url(#ball-grad)" stroke="#0F2318" stroke-width="1.2" stroke-linejoin="round" />
    <!-- Pentagon Center -->
    <path d="M12 7l3.2 2.3-1.2 3.7h-4l-1.2-3.7z" fill="#0F2318" />
    <!-- Seams / Lines -->
    <path d="M12 7V2" stroke="#0F2318" stroke-width="1.2" stroke-linecap="round" />
    <path d="M15.2 9.3l4.3-2.1" stroke="#0F2318" stroke-width="1.2" stroke-linecap="round" />
    <path d="M14 13l2.8 3.8" stroke="#0F2318" stroke-width="1.2" stroke-linecap="round" />
    <path d="M10 13L7.2 16.8" stroke="#0F2318" stroke-width="1.2" stroke-linecap="round" />
    <path d="M8.8 9.3L4.5 7.2" stroke="#0F2318" stroke-width="1.2" stroke-linecap="round" />
  </g>
</svg>
